<svg width="104" height="32" viewBox="0 0 104 32" fill="none" xmlns="http://www.w3.org/2000/svg">
<path d="M67.0132 26.4839L75.5859 29.191L82.805 21.9719L91.8289 28.2887L101.304 26.4839L97.2432 13.3993L82.805 17.9112L74.6835 13.3993L66.1108 14.7528L67.0132 26.4839Z" fill="#F1A501"/>
<path d="M0.164429 22.0298V20.0788L5.68524 19.0826V21.7807C5.71291 23.2474 6.0865 24.3543 6.806 25.1015C7.55318 25.821 8.53558 26.1807 9.7532 26.1807C10.9432 26.1807 11.884 25.7933 12.5759 25.0185C13.2954 24.2436 13.6551 23.2059 13.6551 21.9052V1.5654H19.3835V21.9052C19.3835 24.6172 18.4841 26.9141 16.6853 28.7959C14.8866 30.6776 12.5897 31.6185 9.79471 31.6185C6.88902 31.6185 4.55064 30.7468 2.77955 29.0034C1.03614 27.2323 0.164429 24.9078 0.164429 22.0298Z" fill="black"/>
<path d="M20.6998 25.4336C20.6998 23.6901 21.2671 22.2926 22.4017 21.2411C23.5363 20.1895 25.003 19.5253 26.8018 19.2486L31.8244 18.5014C32.8484 18.363 33.3603 17.8788 33.3603 17.0486C33.3603 16.2737 33.0559 15.6372 32.4471 15.1391C31.866 14.641 31.0219 14.3919 29.915 14.3919C28.7527 14.3919 27.8257 14.7102 27.1338 15.3467C26.4697 15.9832 26.0961 16.7718 26.0131 17.7127L21.1149 16.675C21.3086 14.9039 22.1803 13.3404 23.73 11.9844C25.2797 10.6284 27.3275 9.95039 29.8735 9.95039C32.9175 9.95039 35.1591 10.6837 36.5981 12.1504C38.0371 13.5894 38.7566 15.4435 38.7566 17.7127V27.7581C38.7566 28.9757 38.8396 30.055 39.0056 30.9959H33.9414C33.8031 30.3871 33.7339 29.5707 33.7339 28.5468C32.4333 30.5669 30.4269 31.577 27.715 31.577C25.6118 31.577 23.9099 30.9682 22.6093 29.7506C21.3363 28.533 20.6998 27.094 20.6998 25.4336ZM28.8772 27.4675C30.1779 27.4675 31.2433 27.1078 32.0735 26.3883C32.9314 25.6411 33.3603 24.4235 33.3603 22.7354V21.8222L28.7527 22.5279C27.0646 22.7769 26.2206 23.6348 26.2206 25.1015C26.2206 25.7656 26.4558 26.3329 26.9263 26.8034C27.3967 27.2462 28.047 27.4675 28.8772 27.4675Z" fill="black"/>
<path d="M60.3878 0.942749V27.3015C60.3878 28.6575 60.4431 29.8889 60.5538 30.9959H55.282C55.1437 30.304 55.0745 29.5154 55.0745 28.6298C54.604 29.4877 53.8569 30.1795 52.833 30.7053C51.8367 31.2311 50.6745 31.494 49.3461 31.494C46.4404 31.494 44.0467 30.4839 42.1649 28.4638C40.3108 26.416 39.3838 23.8423 39.3838 20.7429C39.3838 17.7266 40.297 15.1945 42.1234 13.1466C43.9775 11.0988 46.3298 10.0749 49.1801 10.0749C52.1135 10.0749 54.0367 10.9189 54.95 12.607V0.942749H60.3878ZM44.9461 20.7429C44.9461 22.5417 45.4165 23.9669 46.3574 25.0185C47.2983 26.0424 48.5159 26.5543 50.0103 26.5543C51.477 26.5543 52.6808 26.0285 53.6216 24.9769C54.5625 23.9254 55.033 22.5002 55.033 20.7014C55.033 18.9303 54.5625 17.5467 53.6216 16.5505C52.6808 15.5265 51.477 15.0146 50.0103 15.0146C48.5436 15.0146 47.326 15.5265 46.3574 16.5505C45.4165 17.5744 44.9461 18.9719 44.9461 20.7429Z" fill="black"/>
<path d="M68.5354 25.06C69.5593 26.0839 70.7907 26.5958 72.2297 26.5958C73.6687 26.5958 74.8864 26.0839 75.8826 25.06C76.9065 24.0361 77.4185 22.6109 77.4185 20.7845C77.4185 18.958 76.9065 17.5329 75.8826 16.5089C74.8864 15.485 73.6687 14.9731 72.2297 14.9731C70.7907 14.9731 69.5593 15.485 68.5354 16.5089C67.5391 17.5329 67.041 18.958 67.041 20.7845C67.041 22.6109 67.5391 24.0361 68.5354 25.06ZM64.5504 13.0221C66.5982 10.9743 69.158 9.95039 72.2297 9.95039C75.3015 9.95039 77.8474 10.9743 79.8675 13.0221C81.9154 15.0699 82.9393 17.6574 82.9393 20.7845C82.9393 23.9115 81.9154 26.499 79.8675 28.5468C77.8474 30.5946 75.3015 31.6185 72.2297 31.6185C69.158 31.6185 66.5982 30.5946 64.5504 28.5468C62.5303 26.499 61.5202 23.9115 61.5202 20.7845C61.5202 17.6574 62.5303 15.0699 64.5504 13.0221Z" fill="black"/>
<path d="M89.4557 25.06C90.4796 26.0839 91.711 26.5958 93.15 26.5958C94.5891 26.5958 95.8067 26.0839 96.8029 25.06C97.8268 24.0361 98.3388 22.6109 98.3388 20.7845C98.3388 18.958 97.8268 17.5329 96.8029 16.5089C95.8067 15.485 94.5891 14.9731 93.15 14.9731C91.711 14.9731 90.4796 15.485 89.4557 16.5089C88.4594 17.5329 87.9613 18.958 87.9613 20.7845C87.9613 22.6109 88.4594 24.0361 89.4557 25.06ZM85.4707 13.0221C87.5185 10.9743 90.0783 9.95039 93.15 9.95039C96.2218 9.95039 98.7677 10.9743 100.788 13.0221C102.836 15.0699 103.86 17.6574 103.86 20.7845C103.86 23.9115 102.836 26.499 100.788 28.5468C98.7677 30.5946 96.2218 31.6185 93.15 31.6185C90.0783 31.6185 87.5185 30.5946 85.4707 28.5468C83.4506 26.499 82.4405 23.9115 82.4405 20.7845C82.4405 17.6574 83.4506 15.0699 85.4707 13.0221Z" fill="black"/>
</svg>
